<svg width="1184" height="360" viewBox="0 0 1184 360" fill="none" xmlns="http://www.w3.org/2000/svg">
<path d="M300.842 166.724L169.176 35.7003C162.13 28.6881 150.733 28.7159 143.72 35.7625L12.6967 167.428C5.68446 174.475 5.71231 185.872 12.7589 192.884L144.425 323.908C151.471 330.92 162.868 330.892 169.88 323.845L300.904 192.18C307.916 185.133 307.888 173.736 300.842 166.724Z" fill="#3A3A3A"/>
<path d="M169.169 35.6968L237.245 103.441L169.501 171.517C162.497 178.556 151.084 178.584 144.045 171.58L75.969 103.835L143.713 35.759C150.718 28.7203 162.13 28.6924 169.169 35.6968Z" fill="#FBD144"/>
<path d="M429.045 145.353L398.093 221.302H388.871L357.919 145.353H366.134C367.053 145.353 367.795 145.583 368.36 146.042C368.925 146.502 369.349 147.085 369.632 147.791L391.044 201.374C391.503 202.576 391.945 203.883 392.369 205.296C392.828 206.71 393.235 208.194 393.588 209.748C393.941 208.194 394.312 206.71 394.701 205.296C395.09 203.883 395.514 202.576 395.973 201.374L417.332 147.791C417.544 147.191 417.95 146.643 418.551 146.148C419.187 145.618 419.947 145.353 420.83 145.353H429.045ZM446.774 167.613V221.302H437.34V167.613H446.774ZM448.788 150.759C448.788 151.678 448.594 152.544 448.205 153.356C447.852 154.134 447.357 154.84 446.721 155.476C446.121 156.077 445.396 156.554 444.548 156.907C443.736 157.261 442.87 157.437 441.951 157.437C441.033 157.437 440.167 157.261 439.354 156.907C438.577 156.554 437.888 156.077 437.287 155.476C436.687 154.84 436.21 154.134 435.856 153.356C435.503 152.544 435.326 151.678 435.326 150.759C435.326 149.841 435.503 148.975 435.856 148.162C436.21 147.314 436.687 146.59 437.287 145.989C437.888 145.353 438.577 144.859 439.354 144.505C440.167 144.152 441.033 143.975 441.951 143.975C442.87 143.975 443.736 144.152 444.548 144.505C445.396 144.859 446.121 145.353 446.721 145.989C447.357 146.59 447.852 147.314 448.205 148.162C448.594 148.975 448.788 149.841 448.788 150.759ZM499.64 177.153C499.357 177.542 499.075 177.842 498.792 178.054C498.509 178.266 498.121 178.372 497.626 178.372C497.096 178.372 496.513 178.16 495.877 177.736C495.241 177.277 494.446 176.782 493.492 176.252C492.573 175.722 491.425 175.245 490.047 174.821C488.704 174.362 487.044 174.132 485.065 174.132C482.415 174.132 480.083 174.609 478.069 175.563C476.055 176.482 474.359 177.825 472.981 179.591C471.638 181.358 470.614 183.496 469.907 186.004C469.236 188.513 468.9 191.322 468.9 194.431C468.9 197.682 469.271 200.579 470.013 203.123C470.755 205.632 471.797 207.752 473.14 209.483C474.518 211.179 476.161 212.487 478.069 213.405C480.012 214.289 482.185 214.73 484.588 214.73C486.885 214.73 488.775 214.465 490.259 213.935C491.743 213.37 492.962 212.752 493.916 212.08C494.905 211.409 495.718 210.808 496.354 210.278C497.025 209.713 497.679 209.43 498.315 209.43C499.092 209.43 499.693 209.731 500.117 210.331L502.767 213.776C501.601 215.225 500.276 216.462 498.792 217.486C497.308 218.511 495.7 219.377 493.969 220.083C492.273 220.755 490.489 221.249 488.616 221.567C486.743 221.885 484.835 222.044 482.892 222.044C479.535 222.044 476.408 221.426 473.511 220.189C470.649 218.953 468.158 217.168 466.038 214.836C463.918 212.469 462.257 209.572 461.056 206.144C459.855 202.717 459.254 198.813 459.254 194.431C459.254 190.439 459.802 186.746 460.897 183.354C462.028 179.962 463.653 177.047 465.773 174.609C467.928 172.136 470.561 170.21 473.67 168.832C476.815 167.454 480.419 166.765 484.482 166.765C488.263 166.765 491.584 167.384 494.446 168.62C497.343 169.822 499.905 171.535 502.131 173.761L499.64 177.153ZM541.158 213.14C544.091 213.14 546.617 212.805 548.737 212.133C550.857 211.462 552.589 210.526 553.931 209.324C555.309 208.088 556.316 206.639 556.952 204.978C557.588 203.282 557.906 201.427 557.906 199.413C557.906 195.491 556.511 192.4 553.719 190.138C550.928 187.842 546.741 186.693 541.158 186.693H524.728V213.14H541.158ZM524.728 153.462V179.379H538.296C541.194 179.379 543.702 179.061 545.822 178.425C547.978 177.789 549.744 176.906 551.122 175.775C552.536 174.645 553.578 173.284 554.249 171.694C554.921 170.069 555.256 168.302 555.256 166.394C555.256 161.907 553.914 158.639 551.228 156.589C548.543 154.505 544.374 153.462 538.72 153.462H524.728ZM538.72 145.353C543.384 145.353 547.395 145.813 550.751 146.731C554.143 147.65 556.917 148.957 559.072 150.653C561.263 152.349 562.871 154.434 563.895 156.907C564.92 159.345 565.432 162.101 565.432 165.175C565.432 167.048 565.132 168.85 564.531 170.581C563.966 172.277 563.1 173.867 561.934 175.351C560.768 176.835 559.284 178.178 557.482 179.379C555.716 180.545 553.631 181.499 551.228 182.241C556.811 183.301 560.998 185.298 563.789 188.23C566.616 191.128 568.029 194.944 568.029 199.678C568.029 202.894 567.429 205.826 566.227 208.476C565.061 211.126 563.33 213.405 561.033 215.313C558.772 217.221 555.981 218.705 552.659 219.765C549.338 220.79 545.557 221.302 541.317 221.302H514.499V145.353H538.72ZM602.603 166.765C606.525 166.765 610.059 167.419 613.203 168.726C616.348 170.034 619.033 171.889 621.259 174.291C623.485 176.694 625.181 179.609 626.347 183.036C627.549 186.428 628.149 190.227 628.149 194.431C628.149 198.671 627.549 202.487 626.347 205.879C625.181 209.271 623.485 212.169 621.259 214.571C619.033 216.974 616.348 218.829 613.203 220.136C610.059 221.408 606.525 222.044 602.603 222.044C598.646 222.044 595.077 221.408 591.897 220.136C588.753 218.829 586.067 216.974 583.841 214.571C581.615 212.169 579.902 209.271 578.7 205.879C577.534 202.487 576.951 198.671 576.951 194.431C576.951 190.227 577.534 186.428 578.7 183.036C579.902 179.609 581.615 176.694 583.841 174.291C586.067 171.889 588.753 170.034 591.897 168.726C595.077 167.419 598.646 166.765 602.603 166.765ZM602.603 214.677C607.903 214.677 611.861 212.911 614.475 209.377C617.09 205.809 618.397 200.844 618.397 194.484C618.397 188.089 617.09 183.107 614.475 179.538C611.861 175.97 607.903 174.185 602.603 174.185C599.918 174.185 597.568 174.645 595.554 175.563C593.576 176.482 591.915 177.807 590.572 179.538C589.265 181.27 588.276 183.407 587.604 185.951C586.968 188.46 586.65 191.304 586.65 194.484C586.65 200.844 587.958 205.809 590.572 209.377C593.222 212.911 597.233 214.677 602.603 214.677ZM681.83 221.302H672.767C671.99 221.302 671.371 221.108 670.912 220.719C670.488 220.295 670.135 219.836 669.852 219.341L656.337 198.3C656.196 198.795 656.037 199.29 655.86 199.784C655.719 200.244 655.507 200.668 655.224 201.056L642.716 219.341C642.363 219.836 641.974 220.295 641.55 220.719C641.161 221.108 640.614 221.302 639.907 221.302H631.48L650.295 193.742L632.222 167.613H641.285C642.062 167.613 642.628 167.737 642.981 167.984C643.334 168.232 643.652 168.585 643.935 169.044L657.132 189.184C657.415 188.16 657.856 187.17 658.457 186.216L670.011 169.256C670.329 168.762 670.665 168.373 671.018 168.09C671.407 167.772 671.866 167.613 672.396 167.613H681.088L663.015 193.265L681.83 221.302ZM688.937 215.472C688.937 214.554 689.096 213.688 689.414 212.875C689.767 212.063 690.227 211.356 690.792 210.755C691.393 210.155 692.099 209.678 692.912 209.324C693.725 208.971 694.59 208.794 695.509 208.794C696.428 208.794 697.293 208.971 698.106 209.324C698.919 209.678 699.625 210.155 700.226 210.755C700.827 211.356 701.304 212.063 701.657 212.875C702.01 213.688 702.187 214.554 702.187 215.472C702.187 216.426 702.01 217.31 701.657 218.122C701.304 218.9 700.827 219.589 700.226 220.189C699.625 220.79 698.919 221.249 698.106 221.567C697.293 221.921 696.428 222.097 695.509 222.097C694.59 222.097 693.725 221.921 692.912 221.567C692.099 221.249 691.393 220.79 690.792 220.189C690.227 219.589 689.767 218.9 689.414 218.122C689.096 217.31 688.937 216.426 688.937 215.472Z" fill="#3A3A3A"/>
<rect x="724.601" y="119.802" width="226" height="120" rx="8" fill="#3A3A3A"/>
<path d="M797.296 159.677H777.676V214.802H765.571V159.677H745.951V149.732H797.296V159.677ZM822.99 186.407C822.99 184.967 822.78 183.617 822.36 182.357C821.97 181.067 821.37 179.942 820.56 178.982C819.75 178.022 818.715 177.272 817.455 176.732C816.225 176.162 814.785 175.877 813.135 175.877C809.925 175.877 807.39 176.792 805.53 178.622C803.7 180.452 802.53 183.047 802.02 186.407H822.99ZM801.795 193.112C801.975 195.482 802.395 197.537 803.055 199.277C803.715 200.987 804.585 202.412 805.665 203.552C806.745 204.662 808.02 205.502 809.49 206.072C810.99 206.612 812.64 206.882 814.44 206.882C816.24 206.882 817.785 206.672 819.075 206.252C820.395 205.832 821.535 205.367 822.495 204.857C823.485 204.347 824.34 203.882 825.06 203.462C825.81 203.042 826.53 202.832 827.22 202.832C828.15 202.832 828.84 203.177 829.29 203.867L832.485 207.917C831.255 209.357 829.875 210.572 828.345 211.562C826.815 212.522 825.21 213.302 823.53 213.902C821.88 214.472 820.185 214.877 818.445 215.117C816.735 215.357 815.07 215.477 813.45 215.477C810.24 215.477 807.255 214.952 804.495 213.902C801.735 212.822 799.335 211.247 797.295 209.177C795.255 207.077 793.65 204.497 792.48 201.437C791.31 198.347 790.725 194.777 790.725 190.727C790.725 187.577 791.235 184.622 792.255 181.862C793.275 179.072 794.73 176.657 796.62 174.617C798.54 172.547 800.865 170.912 803.595 169.712C806.355 168.512 809.46 167.912 812.91 167.912C815.82 167.912 818.505 168.377 820.965 169.307C823.425 170.237 825.54 171.602 827.31 173.402C829.08 175.172 830.46 177.362 831.45 179.972C832.47 182.552 832.98 185.507 832.98 188.837C832.98 190.517 832.8 191.657 832.44 192.257C832.08 192.827 831.39 193.112 830.37 193.112H801.795ZM874.396 178.397C874.066 178.817 873.736 179.147 873.406 179.387C873.106 179.627 872.656 179.747 872.056 179.747C871.486 179.747 870.931 179.582 870.391 179.252C869.851 178.892 869.206 178.502 868.456 178.082C867.706 177.632 866.806 177.242 865.756 176.912C864.736 176.552 863.461 176.372 861.931 176.372C859.981 176.372 858.271 176.732 856.801 177.452C855.331 178.142 854.101 179.147 853.111 180.467C852.151 181.787 851.431 183.392 850.951 185.282C850.471 187.142 850.231 189.257 850.231 191.627C850.231 194.087 850.486 196.277 850.996 198.197C851.536 200.117 852.301 201.737 853.291 203.057C854.281 204.347 855.481 205.337 856.891 206.027C858.301 206.687 859.891 207.017 861.661 207.017C863.431 207.017 864.856 206.807 865.936 206.387C867.046 205.937 867.976 205.457 868.726 204.947C869.476 204.407 870.121 203.927 870.661 203.507C871.231 203.057 871.861 202.832 872.551 202.832C873.451 202.832 874.126 203.177 874.576 203.867L877.771 207.917C876.541 209.357 875.206 210.572 873.766 211.562C872.326 212.522 870.826 213.302 869.266 213.902C867.736 214.472 866.146 214.877 864.496 215.117C862.876 215.357 861.256 215.477 859.636 215.477C856.786 215.477 854.101 214.952 851.581 213.902C849.061 212.822 846.856 211.262 844.966 209.222C843.076 207.182 841.576 204.692 840.466 201.752C839.386 198.782 838.846 195.407 838.846 191.627C838.846 188.237 839.326 185.102 840.286 182.222C841.276 179.312 842.716 176.807 844.606 174.707C846.496 172.577 848.836 170.912 851.626 169.712C854.416 168.512 857.626 167.912 861.256 167.912C864.706 167.912 867.721 168.467 870.301 169.577C872.911 170.687 875.251 172.277 877.321 174.347L874.396 178.397ZM895.854 173.582C897.654 171.902 899.634 170.537 901.794 169.487C903.954 168.437 906.489 167.912 909.399 167.912C911.919 167.912 914.154 168.347 916.104 169.217C918.054 170.057 919.674 171.257 920.964 172.817C922.284 174.347 923.274 176.192 923.934 178.352C924.624 180.482 924.969 182.837 924.969 185.417V214.802H913.854V185.417C913.854 182.597 913.209 180.422 911.919 178.892C910.629 177.332 908.664 176.552 906.024 176.552C904.104 176.552 902.304 176.987 900.624 177.857C898.944 178.727 897.354 179.912 895.854 181.412V214.802H884.739V147.932H895.854V173.582Z" fill="#FBD144"/>
</svg>
